<svg width="271" height="267" viewBox="0 0 271 267" fill="none" xmlns="http://www.w3.org/2000/svg">
<g clip-path="url(#clip0_108_1391)">
<path d="M209.473 210.029C209.473 215.348 206.675 219.283 201.54 220.839C186.554 225.388 171.525 229.815 156.502 234.243C120.357 244.891 84.2012 255.507 48.0507 266.144C39.6667 268.612 33.0958 265.149 30.6383 256.754C20.9234 223.606 10.8102 190.584 0.639449 157.577C-0.890622 152.62 0.209771 150.697 5.17202 149.335C15.2432 146.573 25.3092 143.77 35.3857 141.024C36.6433 140.684 37.8013 140.532 36.8791 138.771C36.5699 138.184 36.3603 137.424 37.2249 136.958C38.1419 136.465 38.8388 136.942 39.1951 137.65C40.065 139.363 41.092 139.499 42.9574 138.986C86.7636 126.96 130.601 115.044 174.413 103.04C176.634 102.432 177.604 102.647 178.311 105.094C188.089 138.766 198.223 172.338 208.614 205.827C209.08 207.326 209.657 208.798 209.468 210.024L209.473 210.029ZM172.369 109.7C172.086 109.899 171.777 110.077 171.52 110.307C150.251 129.423 129.003 148.565 107.682 167.628C106.314 168.848 106.565 169.896 106.974 171.264C110.045 181.597 113.163 191.92 116.076 202.3C116.72 204.595 117.491 204.475 119.188 203.469C123.805 200.734 126.771 196.573 129.15 191.972C138.346 174.198 148.228 156.796 157.592 139.117C162.675 129.512 168.261 120.169 172.93 110.339C173.197 110.004 173.223 109.637 173.061 109.249C172.83 109.401 172.599 109.553 172.369 109.705V109.7ZM203.814 216.883C203.274 216.495 203.012 216.254 202.708 216.102C181.314 205.345 159.903 194.608 138.534 183.798C137.046 183.043 136.669 183.594 136.061 184.752C133.598 189.447 131.298 194.241 128.317 198.648C121.861 208.19 112.46 210.663 102.122 205.586C95.0165 202.096 87.8692 198.695 80.8319 195.069C79.0189 194.137 78.3534 194.592 77.4679 196.149C72.5633 204.774 67.5381 213.336 62.6073 221.95C55.0775 235.097 47.6315 248.286 40.0335 261.397C39.017 263.152 39.5357 263.566 41.1077 263.943C43.8011 264.593 46.2691 263.708 48.779 262.969C96.1064 249.004 143.439 235.066 190.756 221.08C194.995 219.828 199.365 218.958 203.809 216.878L203.814 216.883ZM171.101 107.268L170.886 106.603C116.92 121.841 62.8484 136.691 8.76664 151.546C12.6442 152.489 16.4327 153.055 20.2212 153.663C47.3276 157.981 74.4392 162.278 101.53 166.7C103.516 167.025 104.731 166.532 106.125 165.275C116.694 155.759 127.321 146.317 137.932 136.853C148.988 126.992 160.045 117.13 171.106 107.268H171.101ZM3.80439 157.996C5.62266 164.043 7.24705 169.446 8.87668 174.848C16.9043 201.415 24.9267 227.987 32.9858 254.548C33.7298 257 34.3796 259.563 36.6328 261.47C37.0101 260.831 37.3087 260.328 37.6022 259.825C50.0681 238.283 62.5182 216.726 75.047 195.221C76.0583 193.487 76.0269 192.811 74.0881 191.878C56.7543 183.568 39.4781 175.131 22.1757 166.752C16.2493 163.886 10.2915 161.088 3.79915 158.002L3.80439 157.996ZM200.581 189.855C192.642 163.325 184.688 136.733 176.723 110.119C176.372 110.255 176.252 110.26 176.226 110.318C163.823 133.264 151.44 156.225 138.99 179.15C138.173 180.654 138.99 180.848 139.981 181.351C160.967 192.072 181.948 202.793 203.122 213.142C206.025 214.562 206.575 214.237 206.67 210.952C206.691 210.176 206.659 209.364 206.444 208.625C205.077 203.862 203.646 199.114 202.252 194.362C201.964 193.377 201.597 192.732 200.34 192.701C199.234 192.669 197.4 192.963 197.364 191.365C197.322 189.342 199.465 190.652 200.581 189.855ZM3.67863 154.03C4.34411 155.151 5.3921 155.439 6.27765 155.874C10.6425 158.023 15.0546 160.077 19.43 162.204C46.7931 175.524 74.151 188.849 101.504 202.19C104.737 203.768 108.017 205.083 111.659 205.345C113.362 205.465 114.158 205.381 113.493 203.196C110.338 192.795 107.341 182.341 104.354 171.888C103.94 170.447 103.275 169.828 101.745 169.598C94.8541 168.576 87.9897 167.392 81.1096 166.286C59.5262 162.828 37.9428 159.364 16.3541 155.937C12.1883 155.277 8.12212 153.888 3.67339 154.025L3.67863 154.03Z" fill="#292663"/>
<path d="M198.951 74.943C195.64 78.8782 192.559 82.5357 189.472 86.1879C188.812 86.9687 188.278 88.0219 186.994 87.7809C185.668 87.5346 185.595 86.2822 185.369 85.3391C184.395 81.32 183.541 77.2747 182.54 72.7946C180.68 74.681 179.191 76.2268 177.667 77.7306C177.033 78.3594 176.247 78.962 175.387 78.2127C174.413 77.3638 175.246 76.625 175.786 75.9962C176.75 74.8696 177.63 73.5753 178.825 72.7736C181.827 70.7667 181.922 68.1939 180.894 65.1495C180.423 63.7556 180.135 62.2832 179.941 60.8265C179.705 59.0292 178.861 57.9131 177.206 57.059C170.718 53.6949 164.294 50.2051 157.875 46.71C156.922 46.1913 155.533 45.8192 155.517 44.4987C155.496 43.0787 156.964 42.932 157.954 42.5076C190.174 28.7055 222.358 14.8143 254.888 1.74061C255.533 1.47861 256.198 1.25853 256.827 0.965092C257.733 0.545894 258.656 0.163376 259.431 1.11705C260.165 2.01309 259.761 2.91436 259.263 3.77371C257.744 6.40942 256.188 9.0294 254.715 11.6913C245.624 28.1396 236.574 44.6088 227.431 61.0309C226.43 62.8334 226.723 63.5513 228.5 64.5364C231.46 66.1765 234.206 68.2044 237.015 70.1117C237.717 70.5885 238.623 71.2069 237.958 72.2077C237.229 73.2976 236.249 72.7841 235.463 72.1815C232.896 70.2217 230.093 68.634 227.363 66.9311C225.707 65.8988 224.853 65.8778 223.878 67.8166C220.519 74.4976 216.987 81.0947 213.492 87.7075C211.868 90.7834 211.061 90.8672 208.97 88.1424C205.68 83.8614 202.441 79.5437 198.957 74.9534L198.951 74.943ZM211.286 86.2246C224.915 60.9994 238.44 35.9681 252.2 10.4966C250.387 10.8896 249.837 11.8537 249.124 12.5559C241.788 19.7766 234.473 27.0235 227.158 34.2703C216.998 44.3311 206.869 54.418 196.656 64.4263C195.373 65.6839 195.304 66.3861 196.546 67.7275C198.359 69.6873 199.837 71.9562 201.503 74.0574C204.689 78.0555 207.907 82.0274 211.286 86.2299V86.2246ZM159.929 44.6402C166.27 48.0619 172.159 51.0906 177.881 54.4128C179.595 55.4084 180.585 55.4346 182.163 54.2451C202.499 38.9025 223.171 24.0314 244.398 9.93592C244.901 9.60056 245.666 9.45908 245.776 8.25389C217.145 20.3897 188.723 32.4363 159.929 44.6402ZM187.481 80.927C187.654 80.9375 187.832 80.9427 188.005 80.9532C189.31 76.5569 190.919 72.2182 191.794 67.738C192.213 65.6001 192.957 64.0805 194.435 62.6395C209.112 48.3239 223.747 33.9717 238.419 19.6561C240.232 17.8849 242.207 16.2763 244.104 14.589C243.9 14.3847 243.701 14.1803 243.496 13.9812C242.668 14.0336 242.16 14.6833 241.558 15.1182C235.317 19.5827 229.092 24.0681 222.861 28.5483C209.903 37.865 196.939 47.1711 183.986 56.4983C183.032 57.1847 181.906 57.7035 182.315 59.3541C184.086 66.5328 185.762 73.7378 187.476 80.9322L187.481 80.927ZM191.532 79.1716C192.884 77.6311 193.785 76.5831 194.712 75.556C196.459 73.6277 196.337 71.647 194.345 69.6139C193.449 72.6531 192.58 75.6084 191.532 79.1716Z" fill="#292663"/>
<path d="M168.627 14.982C168.559 20.7669 163.917 25.4357 158.352 25.3152C152.546 25.1894 147.956 20.6045 148.003 14.9872C148.055 9.04509 152.782 4.61732 158.928 4.76404C164.498 4.89504 168.69 9.31757 168.627 14.9872V14.982ZM165.934 14.9296C165.981 10.7848 162.916 7.59886 158.787 7.50454C154.432 7.40498 150.743 10.8791 150.759 15.0658C150.78 19.1006 154.212 22.5223 158.278 22.5537C162.46 22.5904 165.882 19.1844 165.929 14.9348L165.934 14.9296Z" fill="#292663"/>
<path d="M269.764 122.747C269.764 123.219 269.759 123.565 269.764 123.911C269.785 124.749 269.675 125.561 268.622 125.582C267.804 125.598 267.427 125.021 267.343 124.22C266.793 119.1 265.551 114.133 263.906 109.265C263.618 108.416 263.743 107.593 264.624 107.3C265.74 106.928 266.154 107.887 266.447 108.699C268.098 113.289 269.177 118.021 269.764 122.747Z" fill="#292663"/>
<path d="M266.987 150.944C266.94 151.143 266.903 151.4 266.825 151.651C265.274 156.388 263.13 160.842 260.275 164.929C259.824 165.574 259.3 166.637 258.231 165.762C257.366 165.055 257.744 164.185 258.231 163.415C260.694 159.506 262.68 155.361 264.32 151.043C264.613 150.268 264.907 149.251 266.06 149.476C266.694 149.602 267.008 150.194 266.992 150.938L266.987 150.944Z" fill="#292663"/>
<path d="M254.794 88.3259C255.637 88.4465 256.036 89.0281 256.439 89.6045C259.096 93.3773 261.548 97.2758 263.586 101.421C264.053 102.364 264.64 103.506 263.319 104.119C262.166 104.654 261.637 103.59 261.228 102.704C259.331 98.5806 256.801 94.834 254.301 91.0717C253.871 90.4219 253.421 89.725 253.782 88.8919C253.971 88.4674 254.395 88.3155 254.788 88.3259H254.794Z" fill="#292663"/>
<path d="M59.0701 87.5084C59.1173 88.6507 58.3889 88.9703 57.6396 89.2428C53.4319 90.7781 49.6539 93.0208 46.2584 95.9447C45.5458 96.5578 44.5502 97.1866 43.7484 96.1753C42.9415 95.1535 43.8166 94.3989 44.5554 93.7806C48.2496 90.6838 52.3787 88.3625 56.9165 86.7381C57.9697 86.3608 58.7819 86.3294 59.0701 87.5031V87.5084Z" fill="#292663"/>
<path d="M40.4159 98.3186C41.6683 98.7064 42.2761 99.4295 41.5058 100.483C38.692 104.324 36.9995 108.657 35.6947 113.179C35.4903 113.887 35.1131 114.515 34.238 114.353C33.4206 114.201 33.0433 113.562 33.211 112.797C34.3323 107.756 36.1977 103.035 39.4151 98.9264C39.6561 98.6225 40.1172 98.4915 40.4107 98.3186H40.4159Z" fill="#292663"/>
<path d="M69.1573 84.9619C72.0445 84.8152 74.9056 85.0615 77.6932 85.8684C78.6417 86.1409 79.7316 86.4606 79.4119 87.7077C79.129 88.8081 78.0495 88.6089 77.2007 88.4255C73.0716 87.5243 68.911 87.3723 64.7138 87.7182C63.7549 87.7968 62.6598 87.9382 62.5078 86.5601C62.3454 85.1191 63.6187 85.0982 64.4571 85.0143C66.0081 84.8624 67.5906 84.9724 69.1573 84.9724V84.9619Z" fill="#292663"/>
<path d="M244.125 181.225C243.496 181.131 242.978 180.995 242.815 180.408C242.558 179.465 243.182 178.941 243.853 178.506C246.871 176.541 249.376 173.994 251.886 171.448C252.682 170.641 253.395 169.755 254.202 168.959C254.752 168.419 255.396 167.764 256.198 168.566C256.879 169.242 256.727 169.98 256.119 170.646C254.595 172.317 253.154 174.083 251.503 175.624C249.596 177.4 247.51 178.983 245.467 180.612C245.074 180.927 244.534 181.047 244.13 181.225H244.125Z" fill="#292663"/>
<path d="M172.966 81.2205C172.914 82.1585 172.374 82.6301 171.835 83.0493C168.465 85.6431 164.886 87.912 161.056 89.7669C160.343 90.1128 159.599 90.5739 159.028 89.6097C158.446 88.6246 158.944 87.9644 159.83 87.5137C163.624 85.5802 167.113 83.1908 170.498 80.6232C171.07 80.1935 171.745 79.8582 172.421 80.2669C172.731 80.4555 172.835 80.969 172.966 81.2153V81.2205Z" fill="#292663"/>
<path d="M32.1892 121.878C32.1892 121.092 32.1996 120.311 32.1892 119.525C32.1734 118.54 32.4197 117.722 33.5987 117.785C34.7096 117.843 34.9978 118.65 34.9611 119.63C34.8039 123.764 35.4956 127.767 36.8423 131.671C37.1252 132.488 37.4396 133.495 36.1873 133.793C35.0659 134.06 34.479 133.416 34.1175 132.337C32.9752 128.936 32.1839 125.483 32.1944 121.872L32.1892 121.878Z" fill="#292663"/>
<path d="M96.5205 92.9476C92.5014 91.952 88.1994 90.8882 83.8974 89.8245C83.1481 89.6411 82.4983 89.2062 82.5926 88.4307C82.7132 87.4299 83.6249 87.2779 84.4266 87.4561C88.8387 88.4412 93.2403 89.463 97.6366 90.511C98.4593 90.7101 99.1038 91.2289 98.8103 92.214C98.4907 93.2829 97.5685 92.9004 96.5205 92.9476Z" fill="#292663"/>
<path d="M270.163 133.715C270.068 136.901 269.534 140.333 268.926 143.744C268.748 144.755 268.648 146.38 267.108 146.107C265.625 145.85 266.274 144.357 266.432 143.471C267.144 139.442 267.548 135.397 267.668 131.31C267.689 130.639 267.186 129.402 268.664 129.418C269.937 129.428 270.231 130.235 270.163 131.341C270.121 132.033 270.152 132.73 270.152 133.72L270.163 133.715Z" fill="#292663"/>
<path d="M226.781 189.761C225.492 189.882 224.957 189.735 224.79 188.965C224.528 187.749 225.46 187.414 226.257 187.188C230.297 186.046 234.117 184.38 237.832 182.457C238.136 182.299 238.487 182.221 238.822 182.121C239.383 181.954 239.902 182.106 240.19 182.582C240.541 183.169 240.462 183.819 239.844 184.186C235.558 186.722 230.92 188.425 226.781 189.761Z" fill="#292663"/>
<path d="M252.42 84.7575C252.451 85.2815 252.394 85.7373 251.975 85.9731C251.388 86.3033 250.759 86.2666 250.298 85.7583C247.332 82.4519 244.13 79.3813 240.897 76.3421C240.384 75.8548 240.148 75.1683 240.766 74.4871C241.296 73.9002 241.919 74.005 242.406 74.3928C246.027 77.2695 249.192 80.6231 252.237 84.0815C252.389 84.2544 252.373 84.5741 252.42 84.7575Z" fill="#292663"/>
<path d="M104.307 92.1093C108.389 93.1835 112.67 94.2786 116.925 95.4629C117.68 95.6725 118.376 96.3484 118.046 97.2445C117.732 98.0933 116.92 98.1981 116.066 97.9623C111.973 96.841 107.87 95.7458 103.783 94.614C103.013 94.3992 102.258 94.0271 102.473 93.0001C102.657 92.1145 103.364 92.0516 104.307 92.1093Z" fill="#292663"/>
<path d="M155.832 91.3964C155.664 92.3291 154.998 92.7064 154.254 93.0261C150.492 94.6452 146.573 95.798 142.643 96.9246C141.789 97.1709 141.018 97.108 140.709 96.1753C140.4 95.2426 140.976 94.6662 141.82 94.4409C145.939 93.3247 149.905 91.7737 153.898 90.2908C154.899 89.9188 155.559 90.4113 155.832 91.3964Z" fill="#292663"/>
<path d="M129.328 96.0758C131.408 95.9186 133.494 95.7719 135.574 95.599C136.46 95.5256 137.261 95.7667 137.392 96.668C137.534 97.6426 136.669 97.9884 135.873 98.0932C131.544 98.6487 127.195 98.8059 122.836 98.5386C122.018 98.4862 121.18 98.2766 121.337 97.1867C121.473 96.2697 122.16 95.9553 123.056 95.9658C125.146 95.9868 127.232 95.971 129.323 95.971C129.323 96.0077 129.323 96.0444 129.323 96.0811L129.328 96.0758Z" fill="#292663"/>
<path d="M210.804 192.507C209.583 192.507 208.362 192.523 207.147 192.507C206.319 192.496 205.805 192.067 205.868 191.213C205.915 190.542 206.287 190.065 207.047 190.102C211.234 190.285 215.316 189.043 219.492 189.2C220.105 189.221 221.211 188.504 221.431 189.772C221.672 191.171 220.341 191.186 219.57 191.37C216.699 192.051 213.775 192.486 210.809 192.517L210.804 192.507Z" fill="#292663"/>
<path d="M203.814 216.883C199.37 218.964 195 219.833 190.761 221.086C143.439 235.066 96.1064 249.01 48.7843 262.974C46.2743 263.713 43.8063 264.599 41.1129 263.949C39.5357 263.572 39.0222 263.152 40.0388 261.402C47.6367 248.297 55.0827 235.103 62.6125 221.956C67.5433 213.341 72.5685 204.784 77.4731 196.154C78.3586 194.598 79.0241 194.142 80.8372 195.075C87.8744 198.701 95.0217 202.096 102.127 205.591C112.466 210.669 121.861 208.196 128.322 198.654C131.303 194.247 133.604 189.452 136.066 184.757C136.674 183.599 137.052 183.049 138.54 183.803C159.908 194.614 181.319 205.35 202.714 216.108C203.017 216.26 203.274 216.501 203.819 216.889L203.814 216.883Z" fill="#FCFDFD"/>
<path d="M171.101 107.269C160.045 117.13 148.983 126.992 137.927 136.853C127.316 146.317 116.684 155.764 106.12 165.275C104.726 166.533 103.511 167.02 101.525 166.7C74.4342 162.283 47.3226 157.986 20.2163 153.663C16.4278 153.061 12.6393 152.495 8.76172 151.546C62.8434 136.691 116.915 121.836 170.881 106.603L171.096 107.269H171.101Z" fill="#FCFDFD"/>
<path d="M3.8042 157.996C10.2913 161.083 16.2544 163.881 22.1808 166.747C39.4831 175.121 56.7593 183.562 74.0931 191.873C76.0319 192.8 76.0634 193.482 75.052 195.216C62.5233 216.726 50.0784 238.278 37.6072 259.82C37.3138 260.328 37.0151 260.826 36.6378 261.465C34.3847 259.558 33.7349 256.995 32.9908 254.543C24.9317 227.981 16.9094 201.415 8.88173 174.843C7.24686 169.441 5.62771 164.038 3.80944 157.991L3.8042 157.996Z" fill="#FCFDFD"/>
<path d="M200.581 189.855C199.465 190.652 197.322 189.342 197.363 191.365C197.4 192.958 199.234 192.669 200.34 192.701C201.597 192.732 201.964 193.377 202.252 194.362C203.646 199.12 205.077 203.862 206.444 208.625C206.654 209.364 206.691 210.176 206.67 210.952C206.575 214.237 206.025 214.557 203.122 213.142C181.947 202.798 160.967 192.072 139.981 181.351C138.995 180.848 138.173 180.659 138.99 179.15C151.44 156.225 163.822 133.269 176.225 110.318C176.257 110.26 176.377 110.255 176.723 110.119C184.688 136.733 192.642 163.32 200.581 189.855ZM192.391 191.611C193.161 191.705 193.879 191.48 194.052 190.715C194.256 189.808 193.638 189.321 192.784 189.106C188.843 188.105 184.913 187.084 180.973 186.088C180.192 185.889 179.333 185.821 178.992 186.78C178.667 187.707 179.286 188.367 180.056 188.582C184.133 189.719 188.188 190.972 192.391 191.616V191.611ZM175.937 185.407C175.922 184.747 175.67 184.416 175.246 184.223C171.221 182.42 167.197 180.623 163.167 178.831C162.471 178.521 161.973 178.846 161.69 179.459C161.333 180.23 161.643 180.822 162.376 181.152C166.317 182.923 170.262 184.694 174.224 186.418C175.319 186.895 175.822 186.282 175.942 185.402L175.937 185.407ZM147.301 170.63C146.483 170.593 146.007 170.703 145.896 171.374C145.765 172.176 146.153 172.721 146.819 173.082C149.952 174.775 153.07 176.504 156.256 178.087C156.927 178.422 158.037 179.449 158.64 177.924C159.127 176.693 158.09 176.268 157.246 175.812C154.417 174.288 151.592 172.752 148.758 171.243C148.228 170.96 147.652 170.772 147.306 170.63H147.301Z" fill="#FCFDFD"/>
<path d="M3.67871 154.03C8.12744 153.894 12.1937 155.282 16.3594 155.942C37.9481 159.364 59.5315 162.833 81.115 166.291C87.995 167.392 94.8594 168.581 101.75 169.603C103.28 169.828 103.946 170.447 104.359 171.893C107.346 182.347 110.344 192.8 113.498 203.202C114.158 205.387 113.367 205.471 111.664 205.35C108.022 205.088 104.737 203.773 101.509 202.196C74.1563 188.855 46.7984 175.529 19.4353 162.209C15.0599 160.082 10.6531 158.023 6.28298 155.88C5.39742 155.445 4.34943 155.156 3.68395 154.035L3.67871 154.03Z" fill="#FCFDFD"/>
<path d="M172.929 110.339C168.261 120.169 162.68 129.507 157.592 139.117C148.233 156.802 138.346 174.198 129.15 191.972C126.771 196.573 123.805 200.734 119.188 203.469C117.491 204.475 116.72 204.596 116.076 202.3C113.162 191.92 110.039 181.597 106.974 171.264C106.57 169.896 106.314 168.848 107.681 167.628C128.998 148.565 150.251 129.423 171.52 110.308C171.777 110.077 172.086 109.904 172.369 109.7C172.557 109.909 172.746 110.124 172.929 110.334V110.339Z" fill="#FCFDFD"/>
<path d="M172.369 109.7C172.6 109.548 172.83 109.396 173.061 109.244C173.223 109.632 173.197 109.998 172.93 110.334C172.741 110.124 172.553 109.909 172.369 109.7Z" fill="#FCFDFD"/>
<path d="M211.286 86.2247C207.906 82.0275 204.689 78.0556 201.503 74.0523C199.832 71.9563 198.359 69.6821 196.546 67.7224C195.304 66.381 195.372 65.684 196.656 64.4212C206.869 54.4129 216.998 44.3259 227.158 34.2652C234.473 27.0236 241.788 19.7767 249.124 12.5508C249.837 11.8486 250.387 10.8845 252.2 10.4915C238.44 35.9629 224.915 60.9943 211.286 86.2195V86.2247Z" fill="#F05B34"/>
<path d="M159.929 44.6402C188.723 32.4364 217.144 20.3897 245.776 8.25391C245.666 9.46434 244.901 9.60582 244.397 9.93594C223.176 24.0315 202.499 38.9025 182.162 54.2451C180.58 55.4398 179.595 55.4084 177.881 54.4128C172.159 51.0854 166.27 48.0567 159.929 44.6402Z" fill="#F05B34"/>
<path d="M187.481 80.9271C185.773 73.7327 184.096 66.5277 182.32 59.349C181.911 57.6984 183.037 57.1796 183.991 56.4932C196.944 47.1713 209.903 37.8598 222.866 28.5432C229.097 24.063 235.322 19.5776 241.563 15.1131C242.165 14.6782 242.674 14.0285 243.501 13.9761C243.706 14.1804 243.905 14.3796 244.109 14.5839C242.212 16.2712 240.237 17.8798 238.424 19.651C223.752 33.9666 209.112 48.3188 194.44 62.6344C192.962 64.0754 192.218 65.595 191.799 67.7329C190.918 72.2131 189.315 76.5518 188.01 80.9481C187.837 80.9376 187.659 80.9324 187.486 80.9219L187.481 80.9271Z" fill="#F05B34"/>
<path d="M191.531 79.1717C192.579 75.6138 193.449 72.6584 194.345 69.614C196.34 71.6506 196.462 73.6313 194.712 75.5561C193.785 76.5832 192.883 77.6312 191.531 79.1717Z" fill="#F05B34"/>
<path d="M165.934 14.9297C165.887 19.1793 162.466 22.5853 158.284 22.5486C154.218 22.5172 150.78 19.0955 150.765 15.0607C150.744 10.8739 154.433 7.39984 158.792 7.4994C162.921 7.59372 165.987 10.7796 165.94 14.9244L165.934 14.9297Z" fill="#FCFDFD"/>
<path d="M192.391 191.616C188.188 190.966 184.138 189.719 180.056 188.577C179.291 188.362 178.667 187.702 178.992 186.775C179.328 185.816 180.187 185.889 180.973 186.083C184.913 187.073 188.849 188.1 192.784 189.101C193.638 189.321 194.256 189.808 194.052 190.71C193.879 191.475 193.161 191.7 192.391 191.611V191.616Z" fill="#292663"/>
<path d="M175.937 185.407C175.822 186.287 175.314 186.9 174.218 186.423C170.257 184.699 166.317 182.928 162.371 181.157C161.643 180.827 161.333 180.235 161.684 179.465C161.967 178.852 162.465 178.527 163.162 178.836C167.192 180.628 171.216 182.425 175.24 184.228C175.665 184.417 175.916 184.752 175.932 185.412L175.937 185.407Z" fill="#292663"/>
<path d="M147.301 170.63C147.642 170.771 148.223 170.965 148.752 171.243C151.587 172.752 154.417 174.287 157.241 175.812C158.085 176.268 159.122 176.687 158.635 177.924C158.032 179.449 156.922 178.422 156.251 178.086C153.065 176.504 149.947 174.77 146.814 173.082C146.148 172.726 145.766 172.176 145.891 171.374C146.001 170.703 146.478 170.593 147.296 170.63H147.301Z" fill="#292663"/>
</g>
<defs>
<clipPath id="clip0_108_1391">
<rect width="270.178" height="266.4" fill="white" transform="translate(0 0.519775)"/>
</clipPath>
</defs>
</svg>
