<svg width="259" height="51" viewBox="0 0 259 51" fill="none" xmlns="http://www.w3.org/2000/svg">
<g clip-path="url(#clip0_108_1189)">
<path d="M32.2117 16.9674C32.003 16.1175 31.6722 15.3642 31.2243 14.7178C30.7765 14.0664 30.2166 13.5116 29.5499 13.0587C28.8832 12.6006 28.1146 12.2545 27.2392 12.0255C26.3638 11.7914 25.407 11.6743 24.3636 11.6743C22.1141 11.6743 20.2004 12.2138 18.6226 13.2877C17.0398 14.3616 15.8387 15.9139 15.0091 17.9344C14.1846 19.955 13.7672 22.398 13.7672 25.2532C13.7672 28.1084 14.1591 30.6125 14.948 32.6687C15.7318 34.7248 16.9075 36.2975 18.4649 37.3867C20.0223 38.4758 21.9563 39.0255 24.2669 39.0255C26.3028 39.0255 28.0027 38.7303 29.3565 38.1348C30.7103 37.5394 31.7282 36.6996 32.4 35.6053C33.0718 34.5162 33.4128 33.2285 33.4128 31.7525L35.7235 31.9918H24.4553V22.459H46.3148V29.2943C46.3148 33.7884 45.3631 37.6259 43.4596 40.8119C41.5561 43.998 38.9401 46.4359 35.6115 48.1307C32.283 49.8255 28.4658 50.6704 24.1651 50.6704C19.3657 50.6704 15.1516 49.6525 11.5278 47.6116C7.89897 45.5757 5.06918 42.6696 3.04355 38.8983C1.01282 35.1269 0 30.643 0 25.4415C0 21.3648 0.620924 17.7512 1.86786 14.6059C3.10971 11.4605 4.84016 8.79871 7.05411 6.62548C9.26806 4.45224 11.8281 2.80323 14.7342 1.68862C17.6404 0.57401 20.7552 0.0141602 24.0735 0.0141602C26.9949 0.0141602 29.7128 0.426413 32.2219 1.25601C34.7361 2.08051 36.9552 3.2562 38.8892 4.77288C40.8232 6.28957 42.3857 8.08108 43.5716 10.1525C44.7574 12.224 45.4802 14.4939 45.7397 16.9674H32.2117Z" fill="#FF6B1E"/>
<path d="M68.5002 49.709C64.6474 49.709 61.3342 48.971 58.5553 47.4899C55.7764 46.0089 53.6388 43.8815 52.1424 41.1026C50.6461 38.3237 49.8979 34.9951 49.8979 31.1118C49.8979 27.2285 50.6512 24.1289 52.1526 21.3399C53.654 18.5559 55.7764 16.3827 58.5145 14.8354C61.2527 13.2831 64.4897 12.5095 68.2152 12.5095C70.9381 12.5095 73.4065 12.932 75.6103 13.7768C77.8192 14.6217 79.7023 15.8483 81.2699 17.4515C82.8375 19.0547 84.0386 21.004 84.8886 23.2892C85.7334 25.5744 86.1559 28.1497 86.1559 31.0151V34.023H53.934V26.8824H74.226C74.2107 25.8492 73.946 24.9382 73.4371 24.1442C72.9281 23.3553 72.2461 22.7344 71.3962 22.2916C70.5411 21.8437 69.5741 21.6198 68.4951 21.6198C67.4162 21.6198 66.4848 21.8437 65.6043 22.2916C64.7289 22.7395 64.0265 23.3502 63.5023 24.134C62.9781 24.9178 62.6981 25.8339 62.6676 26.8824V34.5829C62.6676 35.7433 62.9119 36.7765 63.3954 37.6824C63.8789 38.5883 64.5762 39.3009 65.4872 39.82C66.3932 40.3391 67.4925 40.5936 68.7751 40.5936C69.6657 40.5936 70.4851 40.4664 71.2282 40.217C71.9713 39.9676 72.6075 39.6012 73.1419 39.1227C73.6763 38.6443 74.0631 38.0692 74.3176 37.3974H86.1559C85.7487 39.9014 84.7868 42.0747 83.265 43.912C81.7483 45.7493 79.7379 47.1744 77.239 48.1872C74.74 49.1949 71.8237 49.7039 68.4901 49.7039L68.5002 49.709Z" fill="#FF6B1E"/>
<path d="M118.738 49.8358H103.449V4.47778H140.313V16.0107H118.738V49.8307V49.8358ZM117.705 23.7875H137.661V35.3204H117.705V23.7875Z" fill="#1B1B1B"/>
<path d="M162.148 50.4825C158.132 50.4825 154.58 49.6936 151.49 48.1158C148.401 46.5381 145.973 44.3699 144.202 41.6063C142.431 38.8427 141.545 35.6668 141.545 32.0838C141.545 28.5007 142.431 25.3248 144.202 22.5612C145.973 19.7976 148.401 17.6396 151.49 16.0822C154.58 14.5248 158.132 13.7512 162.148 13.7512C166.164 13.7512 169.726 14.5299 172.836 16.0822C175.946 17.6345 178.373 19.7976 180.124 22.5612C181.875 25.3248 182.75 28.5007 182.75 32.0838C182.75 35.6668 181.875 38.8427 180.124 41.6063C178.373 44.3699 175.946 46.5431 172.836 48.1158C169.726 49.6936 166.164 50.4825 162.148 50.4825ZM162.148 39.0768C163.227 39.0768 164.199 38.8172 165.064 38.2981C165.929 37.779 166.622 36.9901 167.136 35.9314C167.655 34.8728 167.914 33.5903 167.914 32.0736C167.914 30.5569 167.655 29.2336 167.136 28.2208C166.617 27.208 165.924 26.4395 165.064 25.9203C164.199 25.4012 163.227 25.1416 162.148 25.1416C161.069 25.1416 160.097 25.4012 159.232 25.9203C158.366 26.4395 157.674 27.208 157.16 28.2208C156.641 29.2387 156.381 30.5213 156.381 32.0736C156.381 33.6259 156.641 34.8728 157.16 35.9314C157.679 36.9901 158.366 37.779 159.232 38.2981C160.097 38.8172 161.069 39.0768 162.148 39.0768Z" fill="#1B1B1B"/>
<path d="M186.702 49.8356V14.392H200.632V25.08L198.363 22.0365C199.441 19.2728 201.172 17.2014 203.544 15.8171C205.92 14.4378 208.771 13.7456 212.094 13.7456V26.7036C211.448 26.6171 210.873 26.5509 210.379 26.5102C209.88 26.4695 209.376 26.444 208.857 26.444C206.653 26.444 204.852 27.0191 203.447 28.1592C202.042 29.3043 201.34 31.2791 201.34 34.0885V49.8305H186.697L186.702 49.8356Z" fill="#1B1B1B"/>
<path d="M215.601 49.8358V1.76001H230.244V49.8358H215.601ZM227.847 44.0032L228.172 26.77L240.418 14.3973H257.717L241.517 31.371L234.198 37.2647L227.847 44.0032ZM241.191 49.8358L231.47 37.5242L240.474 26.4443L258.872 49.8358H241.186H241.191Z" fill="#1B1B1B"/>
<path d="M111.716 15.9243H87.9482V23.8284H111.716V15.9243Z" fill="#FF6B1E"/>
<path d="M105.757 49.9431C100.825 49.9635 96.8906 49.6785 94.0302 44.9706C93.0123 43.2962 92.5186 41.1993 92.5492 38.6749V4.34082H105.512C105.512 4.34082 105.512 37.3261 105.512 37.4534" fill="#FF6B1E"/>
</g>
<defs>
<clipPath id="clip0_108_1189">
<rect width="258.885" height="50.6511" fill="white" transform="translate(0 0.0197754)"/>
</clipPath>
</defs>
</svg>
