<svg width="40" height="41" viewBox="0 0 40 41" fill="none" xmlns="http://www.w3.org/2000/svg">
<rect x="0.5" y="1.39868" width="39" height="39" rx="11.5" stroke="#E0DFDF"/>
<path d="M15.3335 18.26L20.1439 13.4495C21.4563 12.1372 22.1124 11.481 22.8366 10.9525C24.3223 9.86816 26.0456 9.15436 27.8629 8.87052C28.7488 8.73218 29.6767 8.73218 31.5327 8.73218C31.6296 8.73218 31.6668 8.77665 31.6668 8.86639C31.6668 10.7223 31.6668 11.6503 31.5285 12.536C31.2446 14.3534 30.5308 16.0767 29.4465 17.5624C28.918 18.2866 28.2618 18.9427 26.9495 20.2551L22.139 25.0655" stroke="#1B1B1B" stroke-width="1.5" stroke-linecap="round" stroke-linejoin="round"/>
<path d="M18.0647 15.847C16.0779 15.847 13.5809 15.4261 11.7218 16.1961C10.3597 16.7604 9.35729 18.0669 8.3335 19.0907L12.1905 20.7436C13.2126 21.1817 12.5878 22.4715 12.4185 23.3176C12.23 24.2604 12.2405 24.2952 12.9203 24.975L15.424 27.4786C16.1038 28.1585 16.1386 28.1691 17.0813 27.9804C17.9275 27.8113 19.2173 27.1864 19.6553 28.2085L21.3083 32.0655C22.3321 31.0418 23.6386 30.0394 24.2028 28.6772C24.973 26.8181 24.552 24.3211 24.552 22.3343" stroke="#1B1B1B" stroke-width="1.5" stroke-linejoin="round"/>
<path d="M20.0002 29.7322L18.8335 30.8988" stroke="#1B1B1B" stroke-width="1.5" stroke-linecap="round" stroke-linejoin="round"/>
<path d="M10.6667 20.3987L9.5 21.5653" stroke="#1B1B1B" stroke-width="1.5" stroke-linecap="round" stroke-linejoin="round"/>
<path d="M23.5 11.1584C24.9 11.3684 26.37 11.9284 27.1883 12.7684C28.2339 13.6926 28.96 14.9384 29.24 16.8984" stroke="#1B1B1B" stroke-width="1.5" stroke-linecap="square"/>
<path d="M26.93 13.469L25.25 15.149" stroke="#1B1B1B" stroke-width="1.5" stroke-linecap="round"/>
</svg>
