<svg width="40" height="41" viewBox="0 0 40 41" fill="none" xmlns="http://www.w3.org/2000/svg">
<rect x="0.5" y="0.551025" width="39" height="39" rx="11.5" stroke="#E0DFDF"/>
<path d="M29.0174 19.9343C29.3453 17.6706 29.4964 16.5067 29.0794 15.4711C28.6486 14.402 27.6931 13.6704 25.782 12.2074L24.3542 11.1143C21.9769 9.29428 20.7882 8.38428 19.4167 8.38428C18.0451 8.38428 16.8565 9.29428 14.4791 11.1143L13.0513 12.2074C11.1402 13.6704 10.1847 14.402 9.75403 15.4711C9.32334 16.5403 9.49839 17.7463 9.84846 20.1584L10.147 22.2153C10.6433 25.6346 10.8914 27.3444 12.0496 28.3643C13.2077 29.3843 14.9009 29.3843 18.2873 29.3843H18.8333" stroke="#1B1B1B" stroke-width="1.5" stroke-linecap="round" stroke-linejoin="round"/>
<path d="M21.1665 25.2751C22.5068 24.1846 24.1076 23.551 25.8269 23.551C27.5516 23.551 29.157 24.1887 30.4998 25.2854M28.3699 28.2177C27.6044 27.7404 26.7407 27.4718 25.8269 27.4718C24.9176 27.4718 24.058 27.7377 23.2954 28.2105" stroke="#1B1B1B" stroke-width="1.5" stroke-linecap="round"/>
<path d="M25.8335 31.7178H25.841" stroke="#1B1B1B" stroke-width="2" stroke-linecap="round" stroke-linejoin="round"/>
</svg>
