<svg width="40" height="41" viewBox="0 0 40 41" fill="none" xmlns="http://www.w3.org/2000/svg">
<rect x="0.5" y="1.27759" width="39" height="39" rx="11.5" stroke="#E0DFDF"/>
<path d="M25.8332 14.9442V19.6108C25.8332 22.8325 23.2215 25.4442 19.9998 25.4442C16.7782 25.4442 14.1665 22.8325 14.1665 19.6108V14.9442C14.1665 11.7225 16.7782 9.11084 19.9998 9.11084C23.2215 9.11084 25.8332 11.7225 25.8332 14.9442Z" stroke="#1B1B1B" stroke-width="1.5"/>
<path d="M25.8335 14.9443H22.3335M25.8335 19.611H22.3335" stroke="#1B1B1B" stroke-width="1.5" stroke-linecap="round"/>
<path d="M29.3332 19.6108C29.3332 24.7655 25.1545 28.9442 19.9998 28.9442M19.9998 28.9442C14.8452 28.9442 10.6665 24.7655 10.6665 19.6108M19.9998 28.9442V32.4442M19.9998 32.4442H23.4998M19.9998 32.4442H16.4998" stroke="#1B1B1B" stroke-width="1.5" stroke-linecap="round"/>
</svg>
