<svg width="40" height="41" viewBox="0 0 40 41" fill="none" xmlns="http://www.w3.org/2000/svg">
<rect x="0.5" y="0.672119" width="39" height="39" rx="11.5" stroke="#E0DFDF"/>
<path d="M25.8332 21.3388V15.5055C25.8332 12.2838 23.2215 9.67212 19.9998 9.67212C16.7782 9.67212 14.1665 12.2838 14.1665 15.5055V21.3388C14.1665 23.5195 14.1665 24.6099 14.6354 25.4221C14.9426 25.9542 15.3844 26.3961 15.9165 26.7032C16.7287 27.1721 17.8191 27.1721 19.9998 27.1721C22.1806 27.1721 23.2709 27.1721 24.0832 26.7032C24.6153 26.3961 25.0571 25.9542 25.3643 25.4221C25.8332 24.6099 25.8332 23.5195 25.8332 21.3388Z" stroke="#1B1B1B" stroke-width="1.5" stroke-linejoin="round"/>
<path d="M27 30.6722C27 29.3835 28.0446 28.3389 29.3333 28.3389C30.622 28.3389 31.6667 29.3835 31.6667 30.6722" stroke="#1B1B1B" stroke-width="1.5" stroke-linecap="round" stroke-linejoin="round"/>
<path d="M8.3335 30.6722C8.3335 29.3835 9.37816 28.3389 10.6668 28.3389C11.9555 28.3389 13.0002 29.3835 13.0002 30.6722" stroke="#1B1B1B" stroke-width="1.5" stroke-linecap="round" stroke-linejoin="round"/>
<path d="M22.3242 14.9221H22.3347" stroke="#1B1B1B" stroke-width="2" stroke-linecap="round" stroke-linejoin="round"/>
<path d="M17.6665 14.9221H17.677" stroke="#1B1B1B" stroke-width="2" stroke-linecap="round" stroke-linejoin="round"/>
<path d="M29.3332 28.3387V23.672C29.3332 21.4722 29.3332 20.3722 28.6497 19.6888C27.9663 19.0054 26.8664 19.0054 24.6665 19.0054H15.3332C13.1333 19.0054 12.0333 19.0054 11.3499 19.6888C10.6665 20.3722 10.6665 21.4722 10.6665 23.672V28.3387" stroke="#1B1B1B" stroke-width="1.5" stroke-linecap="round" stroke-linejoin="round"/>
</svg>
