<svg width="40" height="41" viewBox="0 0 40 41" fill="none" xmlns="http://www.w3.org/2000/svg">
<rect x="0.5" y="1.42993" width="39" height="39" rx="11.5" stroke="#E0DFDF"/>
<path d="M8.63229 25.1674C8.67191 24.7904 8.94516 24.4864 9.49166 23.8787L10.6946 22.5339C10.9886 22.1616 11.1973 21.5132 11.1973 20.9296C11.1973 20.3465 10.9885 19.6979 10.6945 19.3257L9.49166 17.9809C8.94516 17.3731 8.6719 17.0692 8.63229 16.6921C8.59267 16.3151 8.79679 15.9608 9.20502 15.2524L9.78086 14.253C10.2164 13.4972 10.4341 13.1193 10.8046 12.9686C11.1751 12.8179 11.5942 12.9368 12.4322 13.1746L13.8558 13.5756C14.3909 13.699 14.9522 13.629 15.4408 13.378L15.8338 13.1512C16.2527 12.8829 16.5749 12.4873 16.7533 12.0223L17.1429 10.8586C17.3991 10.0886 17.5272 9.70362 17.8321 9.4834C18.137 9.26318 18.5421 9.26318 19.3521 9.26318H20.6527C21.4629 9.26318 21.8679 9.26318 22.1728 9.4834C22.4777 9.70362 22.6058 10.0886 22.862 10.8586L23.2516 12.0223C23.43 12.4873 23.7522 12.8829 24.1712 13.1512L24.5642 13.378C25.0527 13.629 25.6141 13.699 26.1491 13.5756L27.5727 13.1746C28.4107 12.9368 28.8298 12.8179 29.2003 12.9686C29.5708 13.1193 29.7885 13.4972 30.2241 14.253L30.7999 15.2524C31.2081 15.9608 31.4122 16.3151 31.3726 16.6921C31.333 17.0692 31.0597 17.3731 30.5133 17.9809L29.3103 19.3257C29.0164 19.6979 28.8076 20.3465 28.8076 20.9296C28.8076 21.5132 29.0163 22.1616 29.3103 22.5339L30.5133 23.8787C31.0597 24.4864 31.333 24.7904 31.3726 25.1674C31.4122 25.5446 31.2081 25.8988 30.7999 26.6072L30.2241 27.6066C29.7885 28.3623 29.5708 28.7403 29.2003 28.891C28.8298 29.0417 28.4107 28.9228 27.5727 28.6849L26.1491 28.2839C25.614 28.1605 25.0526 28.2306 24.564 28.4817L24.171 28.7085C23.7521 28.9768 23.43 29.3723 23.2517 29.8374L22.862 31.0011C22.6058 31.7711 22.4777 32.1561 22.1728 32.3763C21.8679 32.5965 21.4629 32.5965 20.6527 32.5965H19.3521C18.5421 32.5965 18.137 32.5965 17.8321 32.3763C17.5272 32.1561 17.3991 31.7711 17.1429 31.0011" stroke="#1B1B1B" stroke-width="1.5" stroke-linecap="round"/>
<path d="M9.19295 28.8396C10.453 27.5796 14.737 23.3376 15.157 22.8476C15.601 22.3296 15.241 21.6296 15.4552 19.4596C15.5588 18.4096 15.7847 17.623 16.431 17.0376C17.201 16.3096 17.831 16.3096 20.001 16.2606C21.891 16.3096 22.115 16.0996 22.311 16.5896C22.451 16.9396 22.031 17.1496 21.527 17.7096C20.407 18.8296 19.749 19.3896 19.686 19.7396C19.231 21.2796 21.023 22.1896 22.003 21.2096C22.3735 20.839 24.089 19.1096 24.257 18.9696C24.383 18.8576 24.6846 18.863 24.831 19.0396C24.957 19.1634 24.971 19.1796 24.957 19.7396C24.9441 20.258 24.9498 21.0022 24.9514 21.7696C24.9534 22.764 24.901 23.8696 24.481 24.4296C23.641 25.6896 22.241 25.7596 20.981 25.8156C19.791 25.8856 18.811 25.7596 18.503 25.9836C18.251 26.1096 16.921 27.5096 15.311 29.1196L12.441 31.9896C10.061 33.8796 7.44295 30.9396 9.19295 28.8396Z" stroke="#1B1B1B" stroke-width="1.5" stroke-linecap="round"/>
</svg>
