<svg width="40" height="41" viewBox="0 0 40 41" fill="none" xmlns="http://www.w3.org/2000/svg">
<rect x="0.5" y="1.15649" width="39" height="39" rx="11.5" stroke="#E0DFDF"/>
<path d="M14.7396 22.9917C9.50101 20.1917 9.50101 18.7917 9.50101 18.325C9.50101 17.8584 9.50101 16.4584 14.7396 13.6584M14.7396 22.9917C9.50101 25.7917 9.5 26.725 9.5 27.6584M14.7396 22.9917C19.9772 20.1923 19.9772 18.7923 19.9772 18.3253C19.9772 17.8584 19.9772 16.4578 14.7396 13.6584M14.7396 13.6584C19.9782 10.8584 19.9782 9.92503 19.9782 8.9917M14.7396 13.6584L12.1924 12.1934C9.50066 10.4868 9.5 9.73924 9.5 8.9917" stroke="#1B1B1B" stroke-width="1.5" stroke-linecap="round" stroke-linejoin="round"/>
<path d="M22.8138 20.6572V22.9661M18.7456 24.741H21.1396M28.1058 24.741H30.4998M28.1058 28.2098H30.4998M18.7456 28.2098H21.1396M22.8138 30.013V32.3219M26.3435 30.013V32.3219M26.3309 20.6572V22.9661M22.3063 29.9528H26.9391C27.5835 29.9528 28.1058 29.4304 28.1058 28.7861V24.1327C28.1058 23.4884 27.5835 22.9661 26.9391 22.9661H22.3063C21.6619 22.9661 21.1396 23.4884 21.1396 24.1327V28.7861C21.1396 29.4304 21.6619 29.9528 22.3063 29.9528Z" stroke="#1B1B1B" stroke-width="1.5" stroke-linecap="round"/>
</svg>
