<svg width="40" height="41" viewBox="0 0 40 41" fill="none" xmlns="http://www.w3.org/2000/svg">
<rect x="0.5" y="0.914307" width="39" height="39" rx="11.5" stroke="#E0DFDF"/>
<path d="M28.7065 11.0734C25.5779 9.15434 22.8473 9.9277 21.207 11.1596C20.5343 11.6647 20.198 11.9172 20.0002 11.9172C19.8023 11.9172 19.4661 11.6647 18.7934 11.1596C17.1531 9.9277 14.4224 9.15434 11.2938 11.0734C7.18791 13.592 6.25883 21.9009 15.7296 28.9108C17.5335 30.246 18.4354 30.9136 20.0002 30.9136C21.5649 30.9136 22.4668 30.246 24.2707 28.9108C33.7415 21.9009 32.8124 13.592 28.7065 11.0734Z" stroke="#1B1B1B" stroke-width="1.5" stroke-linecap="round"/>
<path d="M20 16.9143V23.9143M16.5 20.4143H23.5" stroke="#1B1B1B" stroke-width="1.5" stroke-linecap="round"/>
</svg>
