<svg width="40" height="41" viewBox="0 0 40 41" fill="none" xmlns="http://www.w3.org/2000/svg">
<rect x="0.5" y="0.793213" width="39" height="39" rx="11.5" stroke="#E0DFDF"/>
<path d="M8.3335 15.6265C8.3335 17.192 17.7775 21.4599 19.9839 21.4599C22.1902 21.4599 31.6344 17.192 31.6344 15.6265C31.6344 14.0611 22.1902 9.79321 19.9839 9.79321C17.7775 9.79321 8.3335 14.0611 8.3335 15.6265Z" stroke="#1B1B1B" stroke-width="1.5" stroke-linecap="round" stroke-linejoin="round"/>
<path d="M12.9932 19.1265L13.2791 25.6947C13.2848 25.8262 13.2991 25.9579 13.3372 26.0839C13.455 26.4733 13.6721 26.8272 14.0033 27.0649C16.595 28.9247 23.3718 28.9247 25.9634 27.0649C26.2949 26.8272 26.5119 26.4733 26.6297 26.0839C26.6677 25.9579 26.682 25.8262 26.6878 25.6947L26.9736 19.1265" stroke="#1B1B1B" stroke-width="1.5" stroke-linecap="round" stroke-linejoin="round"/>
<path d="M29.8858 17.3765V25.5431M29.8858 25.5431C28.9618 27.2305 28.5532 28.1345 28.1382 29.6265C28.0481 30.1573 28.1197 30.4248 28.4855 30.6623C28.6342 30.7588 28.8128 30.7931 28.9899 30.7931H30.7637C30.9523 30.7931 31.1426 30.7538 31.2979 30.6467C31.638 30.4122 31.7255 30.155 31.6333 29.6265C31.2695 28.2412 30.8061 27.2941 29.8858 25.5431Z" stroke="#1B1B1B" stroke-width="1.5" stroke-linecap="round" stroke-linejoin="round"/>
</svg>
