<svg width="40" height="41" viewBox="0 0 40 41" fill="none" xmlns="http://www.w3.org/2000/svg">
<rect x="0.5" y="1.30859" width="39" height="39" rx="11.5" stroke="#E0DFDF"/>
<path d="M25.8332 14.9754V19.6421C25.8332 22.8637 23.2215 25.4754 19.9998 25.4754C16.7782 25.4754 14.1665 22.8637 14.1665 19.6421V14.9754C14.1665 11.7538 16.7782 9.14209 19.9998 9.14209C23.2215 9.14209 25.8332 11.7538 25.8332 14.9754Z" stroke="#1B1B1B" stroke-width="1.5"/>
<path d="M29.3332 19.6421C29.3332 24.7968 25.1545 28.9754 19.9998 28.9754M19.9998 28.9754C14.8452 28.9754 10.6665 24.7968 10.6665 19.6421M19.9998 28.9754V32.4754M19.9998 32.4754H23.4998M19.9998 32.4754H16.4998" stroke="#1B1B1B" stroke-width="1.5" stroke-linecap="round"/>
</svg>
