<svg width="40" height="41" viewBox="0 0 40 41" fill="none" xmlns="http://www.w3.org/2000/svg">
<rect x="0.5" y="1.0354" width="39" height="39" rx="11.5" stroke="#E0DFDF"/>
<path d="M10.6668 24.6188C9.37816 24.6188 8.3335 23.5742 8.3335 22.2855C8.3335 20.9968 9.37816 19.9521 10.6668 19.9521" stroke="#1B1B1B" stroke-width="1.5" stroke-linecap="round" stroke-linejoin="round"/>
<path d="M29.3335 24.6188C30.6222 24.6188 31.6668 23.5742 31.6668 22.2855C31.6668 20.9968 30.6222 19.9521 29.3335 19.9521" stroke="#1B1B1B" stroke-width="1.5" stroke-linecap="round" stroke-linejoin="round"/>
<path d="M14.1665 14.7021V11.2021" stroke="#1B1B1B" stroke-width="1.5" stroke-linejoin="round"/>
<path d="M25.8335 14.7021V11.2021" stroke="#1B1B1B" stroke-width="1.5" stroke-linejoin="round"/>
<path d="M14.1667 11.202C14.811 11.202 15.3333 10.6797 15.3333 10.0353C15.3333 9.39099 14.811 8.86865 14.1667 8.86865C13.5223 8.86865 13 9.39099 13 10.0353C13 10.6797 13.5223 11.202 14.1667 11.202Z" stroke="#1B1B1B" stroke-width="1.5" stroke-linejoin="round"/>
<path d="M25.8332 11.202C26.4775 11.202 26.9998 10.6797 26.9998 10.0353C26.9998 9.39099 26.4775 8.86865 25.8332 8.86865C25.1888 8.86865 24.6665 9.39099 24.6665 10.0353C24.6665 10.6797 25.1888 11.202 25.8332 11.202Z" stroke="#1B1B1B" stroke-width="1.5" stroke-linejoin="round"/>
<path d="M21.75 14.7021H18.25C14.9502 14.7021 13.3003 14.7021 12.2751 15.7626C11.25 16.8231 11.25 18.5299 11.25 21.9435C11.25 25.3572 11.25 27.0639 12.2751 28.1244C13.3003 29.1849 14.9502 29.1849 18.25 29.1849H19.4462C20.3697 29.1849 20.6956 29.3757 21.332 30.0687C22.0358 30.8352 23.1256 31.858 24.1116 32.0961C25.513 32.4348 25.6699 31.9664 25.3572 30.6308C25.2682 30.2503 25.0461 29.642 25.2803 29.2876C25.4116 29.089 25.6302 29.0402 26.0676 28.9426C26.7576 28.7885 27.3264 28.5366 27.7248 28.1244C28.75 27.0639 28.75 25.3572 28.75 21.9435C28.75 18.5299 28.75 16.8231 27.7248 15.7626C26.6997 14.7021 25.0498 14.7021 21.75 14.7021Z" stroke="#1B1B1B" stroke-width="1.5" stroke-linejoin="round"/>
<path d="M17.0835 24.0354C17.7486 24.7438 18.8075 25.2021 20.0002 25.2021C21.1928 25.2021 22.2517 24.7438 22.9168 24.0354" stroke="#1B1B1B" stroke-width="1.5" stroke-linecap="round" stroke-linejoin="round"/>
<path d="M16.5105 19.3687H16.5" stroke="#1B1B1B" stroke-width="2" stroke-linecap="round" stroke-linejoin="round"/>
<path d="M23.5105 19.3687H23.5" stroke="#1B1B1B" stroke-width="2" stroke-linecap="round" stroke-linejoin="round"/>
</svg>
