<svg width="40" height="41" viewBox="0 0 40 41" fill="none" xmlns="http://www.w3.org/2000/svg">
<rect x="0.5" y="1.18848" width="39" height="39" rx="11.5" stroke="#E0DFDF"/>
<path d="M10.6665 24.1885V28.8551" stroke="#1B1B1B" stroke-width="1.5" stroke-linecap="round" stroke-linejoin="round"/>
<path d="M20 17.1885V28.8551" stroke="#1B1B1B" stroke-width="1.5" stroke-linecap="round" stroke-linejoin="round"/>
<path d="M31.6668 32.355H8.3335" stroke="#1B1B1B" stroke-width="1.5" stroke-linecap="round" stroke-linejoin="round"/>
<path d="M29.3335 21.855V28.855" stroke="#1B1B1B" stroke-width="1.5" stroke-linecap="round" stroke-linejoin="round"/>
<path d="M12.5336 16.9552C12.1079 16.3885 11.4302 16.022 10.6668 16.022C9.37816 16.022 8.3335 17.0666 8.3335 18.3553C8.3335 19.644 9.37816 20.6886 10.6668 20.6886C11.9555 20.6886 13.0002 19.644 13.0002 18.3553C13.0002 17.83 12.8266 17.3452 12.5336 16.9552ZM12.5336 16.9552L18.1334 12.7554M18.1334 12.7554C18.5591 13.3221 19.2368 13.6886 20.0002 13.6886C20.9137 13.6886 21.7045 13.1637 22.0876 12.399M18.1334 12.7554C17.8404 12.3654 17.6668 11.8806 17.6668 11.3553C17.6668 10.0666 18.7115 9.02197 20.0002 9.02197C21.2889 9.02197 22.3335 10.0666 22.3335 11.3553C22.3335 11.7305 22.2449 12.085 22.0876 12.399M22.0876 12.399L27.2461 14.9782M27.2461 14.9782C27.0887 15.2923 27.0002 15.6468 27.0002 16.022C27.0002 17.3106 28.0448 18.3553 29.3335 18.3553C30.6222 18.3553 31.6668 17.3106 31.6668 16.022C31.6668 14.7333 30.6222 13.6886 29.3335 13.6886C28.42 13.6886 27.6291 14.2136 27.2461 14.9782Z" stroke="#1B1B1B" stroke-width="1.5"/>
</svg>
