<svg width="40" height="41" viewBox="0 0 40 41" fill="none" xmlns="http://www.w3.org/2000/svg">
<rect x="0.5" y="0.519775" width="39" height="39" rx="11.5" stroke="#E0DFDF"/>
<path d="M16.0835 9.68955L14.0945 10.6089C11.0315 12.0247 9.5 12.7327 9.5 13.8947C9.5 15.0567 11.0315 15.7646 14.0945 17.1805L16.0835 18.0998C18.0111 18.9908 18.975 19.4364 20 19.4364C21.025 19.4364 21.9889 18.9908 23.9165 18.0998L25.9054 17.1805C28.9685 15.7646 30.5 15.0567 30.5 13.8947C30.5 12.7327 28.9685 12.0247 25.9054 10.6089L23.9165 9.68955C21.9889 8.79853 21.025 8.35303 20 8.35303C18.975 8.35303 18.0111 8.79853 16.0835 9.68955Z" stroke="#1B1B1B" stroke-width="1.5" stroke-linecap="round" stroke-linejoin="round"/>
<path d="M30.2527 18.9666C30.4175 19.1984 30.5 19.4401 30.5 19.7059C30.5 20.8513 28.9685 21.5492 25.9054 22.9449L23.9165 23.8512C21.9889 24.7294 21.025 25.1687 20 25.1687C18.975 25.1687 18.0111 24.7294 16.0835 23.8512L14.0945 22.9449C11.0315 21.5492 9.5 20.8513 9.5 19.7059C9.5 19.4401 9.58245 19.1984 9.74733 18.9666" stroke="#1B1B1B" stroke-width="1.5" stroke-linecap="round" stroke-linejoin="round"/>
<path d="M29.7728 24.9968C30.2576 25.383 30.5 25.7679 30.5 26.2236C30.5 27.3691 28.9685 28.0669 25.9054 29.4626L23.9165 30.3689C21.9889 31.2472 21.025 31.6864 20 31.6864C18.975 31.6864 18.0111 31.2472 16.0835 30.3689L14.0945 29.4626C11.0315 28.0669 9.5 27.3691 9.5 26.2236C9.5 25.7679 9.74241 25.383 10.2272 24.9968" stroke="#1B1B1B" stroke-width="1.5" stroke-linecap="round" stroke-linejoin="round"/>
</svg>
