<svg width="761" height="378" viewBox="0 0 761 378" fill="none" xmlns="http://www.w3.org/2000/svg">
<g opacity="0.3">
<path d="M493.801 8.13574V10.3593" stroke="#3C4959" stroke-width="0.42" stroke-miterlimit="10"/>
<path d="M493.801 14.8501V371.821" stroke="#3C4959" stroke-width="0.42" stroke-miterlimit="10"/>
<path d="M493.801 374.066V376.29" stroke="#3C4959" stroke-width="0.42" stroke-miterlimit="10"/>
<path d="M560.721 8.13574V10.3593" stroke="#3C4959" stroke-width="0.42" stroke-miterlimit="10"/>
<path d="M560.721 14.8501V371.821" stroke="#3C4959" stroke-width="0.42" stroke-miterlimit="10"/>
<path d="M560.721 374.066V376.29" stroke="#3C4959" stroke-width="0.42" stroke-miterlimit="10"/>
<path d="M627.642 4.3103V6.53382" stroke="#3C4959" stroke-width="0.42" stroke-miterlimit="10"/>
<path d="M627.642 11.0247V367.995" stroke="#3C4959" stroke-width="0.42" stroke-miterlimit="10"/>
<path d="M627.642 370.241V372.464" stroke="#3C4959" stroke-width="0.42" stroke-miterlimit="10"/>
<path d="M293.166 8.13574V10.3593" stroke="#3C4959" stroke-width="0.42" stroke-miterlimit="10"/>
<path d="M293.166 14.8501V371.821" stroke="#3C4959" stroke-width="0.42" stroke-miterlimit="10"/>
<path d="M293.166 374.066V376.29" stroke="#3C4959" stroke-width="0.42" stroke-miterlimit="10"/>
<path d="M360.086 8.13574V10.3593" stroke="#3C4959" stroke-width="0.42" stroke-miterlimit="10"/>
<path d="M360.086 14.8501V371.821" stroke="#3C4959" stroke-width="0.42" stroke-miterlimit="10"/>
<path d="M360.086 374.066V376.29" stroke="#3C4959" stroke-width="0.42" stroke-miterlimit="10"/>
<path d="M427.007 4.3103V6.53382" stroke="#3C4959" stroke-width="0.42" stroke-miterlimit="10"/>
<path d="M427.007 11.0247V367.995" stroke="#3C4959" stroke-width="0.42" stroke-miterlimit="10"/>
<path d="M427.007 370.241V372.464" stroke="#3C4959" stroke-width="0.42" stroke-miterlimit="10"/>
<path d="M159.448 8.13574V10.3593" stroke="#3C4959" stroke-width="0.42" stroke-miterlimit="10"/>
<path d="M159.448 14.8501V371.821" stroke="#3C4959" stroke-width="0.42" stroke-miterlimit="10"/>
<path d="M159.448 374.066V376.29" stroke="#3C4959" stroke-width="0.42" stroke-miterlimit="10"/>
<path d="M226.368 4.3103V6.53382" stroke="#3C4959" stroke-width="0.42" stroke-miterlimit="10"/>
<path d="M226.368 11.0247V367.995" stroke="#3C4959" stroke-width="0.42" stroke-miterlimit="10"/>
<path d="M226.368 370.241V372.464" stroke="#3C4959" stroke-width="0.42" stroke-miterlimit="10"/>
<path d="M49.3354 302.178H51.5977" stroke="#3C4959" stroke-width="0.48" stroke-miterlimit="10"/>
<path d="M56.0991 302.178H755.883" stroke="#3C4959" stroke-width="0.48" stroke-miterlimit="10"/>
<path d="M758.134 302.178H760.396" stroke="#3C4959" stroke-width="0.48" stroke-miterlimit="10"/>
<path d="M49.3354 226.955H51.5977" stroke="#3C4959" stroke-width="0.48" stroke-miterlimit="10"/>
<path d="M56.0991 226.955H755.883" stroke="#3C4959" stroke-width="0.48" stroke-miterlimit="10"/>
<path d="M758.134 226.955H760.396" stroke="#3C4959" stroke-width="0.48" stroke-miterlimit="10"/>
<path d="M45.3745 151.732H47.6368" stroke="#3C4959" stroke-width="0.48" stroke-miterlimit="10"/>
<path d="M52.1382 151.732H751.922" stroke="#3C4959" stroke-width="0.48" stroke-miterlimit="10"/>
<path d="M754.173 151.732H756.435" stroke="#3C4959" stroke-width="0.48" stroke-miterlimit="10"/>
<path d="M43.396 76.5045H45.6583" stroke="#3C4959" stroke-width="0.48" stroke-miterlimit="10"/>
<path d="M50.1597 76.5045H749.944" stroke="#3C4959" stroke-width="0.48" stroke-miterlimit="10"/>
<path d="M752.194 76.5045H754.457" stroke="#3C4959" stroke-width="0.48" stroke-miterlimit="10"/>
<path d="M493.954 374.732H560.17V302.642H493.954V374.732Z" fill="#F3F7FF"/>
<path d="M494.426 301.535H560.432V227.358H494.426V301.535Z" fill="#AAC6FA"/>
<path d="M359.929 226.599H425.935V152.421H359.929V226.599Z" fill="#FDCAB1"/>
<path d="M226.458 76.557L292.464 76.557V2.37995L226.458 2.37995V76.557Z" fill="#FDCAB1"/>
<path d="M562.335 377.52H628.341V303.343H562.335V377.52Z" fill="#FDCAB1"/>
<path d="M627.922 226.36H694.326V152.183H627.922V226.36Z" fill="#AAC6FA"/>
<path d="M92.886 151.181H159.093V76.557L92.886 76.557L92.886 151.181Z" fill="#AAC6FA"/>
<path d="M225.458 227.8H292.458V152.669H225.458V227.8Z" fill="#AAC6FA"/>
<path d="M293.201 377.52H360.2V302.389H293.201V377.52Z" fill="#FF6B1E"/>
<path d="M561.342 75.651L628.341 75.651V0.519753L561.342 0.519753V75.651Z" fill="#FF6B1E"/>
<path d="M293.385 76.1238L359.929 76.1238V2.31001L293.385 2.31001V76.1238Z" fill="#F3F7FF"/>
<path d="M92.7504 376.264H159.098V302.577H92.7504L92.7504 376.264Z" fill="#F3F7FF"/>
<path d="M494.22 151.181H560.633V76.8984L494.22 76.8984V151.181Z" fill="#FF6B1E"/>
<path d="M494.247 76.9903V151.982H505.867V76.9903H494.247Z" fill="#3C4959"/>
</g>
</svg>
